<svg xmlns="http://www.w3.org/2000/svg" width="299.988" height="480.109" viewBox="0 0 468 749">
  <defs>
    <style>
      .cls-1 {
        fill: #f44336;
      }

      .cls-1, .cls-2, .cls-3, .cls-4 {
        fill-rule: evenodd;
      }

      .cls-1, .cls-2, .cls-4 {
        opacity: 0.7;
      }

      .cls-2 {
        fill: #2196f3;
      }

      .cls-4 {
        fill: #424242;
      }
    </style>
  </defs>
  <path id="Polygone_1" data-name="Polygone 1" class="cls-1" d="M466.934,354.653l-149.171,85.1L167.709,353.124l-0.883-171.738L316,96.282l150.054,86.634Z"/>
  <path id="Polygone_1-2" data-name="Polygone 1" class="cls-2" d="M301.434,259.859l-149.171,85.1L2.209,258.33,1.326,86.592,150.5,1.488,300.551,88.121Z"/>
  <path id="NOVA" class="cls-3" d="M134.818,632.626L110.6,589.951v22.46l24.219,42.579h11.914V583.017H134.818v49.609ZM106.6,654.99V583.017H94.681V654.99H106.6Zm58.643-20.9a33.805,33.805,0,0,0,5.859,11.377,25.779,25.779,0,0,0,8.936,7.129,29.957,29.957,0,0,0,11.132,2.881V645.81a14.726,14.726,0,0,1-6.152-2,15.671,15.671,0,0,1-5.127-5.029,27.134,27.134,0,0,1-3.467-8.252,51.967,51.967,0,0,1,0-23.682,26.569,26.569,0,0,1,3.418-8.2,15.073,15.073,0,0,1,5.078-4.883,16.477,16.477,0,0,1,6.25-2.051v-9.765a29.7,29.7,0,0,0-11.181,2.881,25.949,25.949,0,0,0-8.887,7.128,33.89,33.89,0,0,0-5.859,11.329A57.553,57.553,0,0,0,165.238,634.091Zm29.834-42.48a14.741,14.741,0,0,1,6.152,2,15.85,15.85,0,0,1,5.127,4.98,26.527,26.527,0,0,1,3.467,8.2,52.18,52.18,0,0,1,0,23.731,27.342,27.342,0,0,1-3.418,8.2,15.385,15.385,0,0,1-5.078,4.98,15.985,15.985,0,0,1-6.25,2.1v9.668A29.319,29.319,0,0,0,206.2,652.6a26.1,26.1,0,0,0,8.838-7.129,34.518,34.518,0,0,0,5.909-11.377,56.315,56.315,0,0,0,0-30.81,34.614,34.614,0,0,0-5.909-11.329,26.507,26.507,0,0,0-8.886-7.177,27.783,27.783,0,0,0-11.084-2.832v9.668Zm63.769,63.769h6.152V639.462l-15.136-56.445H236.478ZM269,636.337V655.38h5.079l23.437-72.363H284.232Zm77.149-53.222H334.525l-25.2,71.875h12.207l18.848-53.907,18.652,53.907h12.11Zm-12.4,49.023-2.734,7.91h18.652l-2.832-7.91H333.743Z"/>
  <path id="Client" class="cls-3" d="M185.877,714.667a13.565,13.565,0,0,0-9.179-3.857v4.834a7.13,7.13,0,0,1,2.734.732,8.038,8.038,0,0,1,2.393,1.9Zm-9.179,32.91a14.733,14.733,0,0,0,5.029-1.123,13.45,13.45,0,0,0,4.15-2.783l-4.052-3.564a7.637,7.637,0,0,1-2.369,1.855,7.994,7.994,0,0,1-2.758.781v4.834ZM161.927,736.86a16.916,16.916,0,0,0,2.905,5.639,13.266,13.266,0,0,0,4.37,3.565,14.111,14.111,0,0,0,5.494,1.465v-4.786a7.477,7.477,0,0,1-3-1.074,7.962,7.962,0,0,1-2.515-2.539,13.572,13.572,0,0,1-1.685-4.1,26.273,26.273,0,0,1,0-11.7,12.932,12.932,0,0,1,1.685-4.077,7.979,7.979,0,0,1,2.49-2.466,8.191,8.191,0,0,1,3.028-1.1V710.81a14.735,14.735,0,0,0-5.494,1.514,13.276,13.276,0,0,0-4.37,3.564,16.965,16.965,0,0,0-2.905,5.615A28.6,28.6,0,0,0,161.927,736.86Zm37.915-27.466h-5.957v29.248q0,0.732.122,2.051a11.306,11.306,0,0,0,.611,2.71,8.131,8.131,0,0,0,1.416,2.514,4.356,4.356,0,0,0,2.587,1.465q0.586,0.1,1.319.147t1.465,0.048q0.732,0,1.464-.024c0.489-.017.911-0.041,1.27-0.073q0.682-.05,1.318-0.147V743.72a15.116,15.116,0,0,1-2.172-.146,4.814,4.814,0,0,1-1.783-.611,3.088,3.088,0,0,1-1.22-1.416,6.349,6.349,0,0,1-.44-2.612V709.394Zm17.774,10.4h-5.957v27.539h5.957V719.794Zm-0.489-11.279a3.386,3.386,0,0,0-2.49-1.025,3.33,3.33,0,0,0-2.441,1.025,3.507,3.507,0,0,0-.025,4.932,3.311,3.311,0,0,0,2.466,1.025,3.428,3.428,0,0,0,2.49-1,3.309,3.309,0,0,0,1.026-2.466A3.39,3.39,0,0,0,217.127,708.515Zm21.582,15.625a5.551,5.551,0,0,1,2.393.83,7.733,7.733,0,0,1,1.88,1.685,7.352,7.352,0,0,1,1.22,2.172,7.26,7.26,0,0,1,.416,2.442h-11.28v4.3h16.748a18.817,18.817,0,0,0,.147-2.344,15.5,15.5,0,0,0-.806-4.98,13.471,13.471,0,0,0-2.319-4.249,12.365,12.365,0,0,0-3.638-3.027,12.045,12.045,0,0,0-4.761-1.416v4.59Zm-3.686,17.895a7.116,7.116,0,0,1-2.417-1.9,7.744,7.744,0,0,1-1.441-2.832,12.936,12.936,0,0,1-.464-3.54,15.19,15.19,0,0,1,.269-2.588,12.2,12.2,0,0,1,.928-2.954,8.323,8.323,0,0,1,1.831-2.563,5.729,5.729,0,0,1,2.978-1.465V719.5a10.233,10.233,0,0,0-4.467,1.319,13.036,13.036,0,0,0-3.638,3.051,14.5,14.5,0,0,0-2.466,4.371,15.324,15.324,0,0,0-.9,5.273,15.1,15.1,0,0,0,.976,5.469,14.731,14.731,0,0,0,2.637,4.443,11.982,11.982,0,0,0,4,3,11.707,11.707,0,0,0,5.029,1.1,12.7,12.7,0,0,0,5.469-1.026,10.738,10.738,0,0,0,3.76-3.027l-2.149-3.272a6.76,6.76,0,0,1-1.587,1.172,12.431,12.431,0,0,1-1.806.806,9.319,9.319,0,0,1-1.709.439,9.173,9.173,0,0,1-1.343.122A7.839,7.839,0,0,1,235.023,742.035Zm23.315-22.241v27.539h5.908V722.577l-0.634-2.783h-5.274Zm17.481,0.611a7.128,7.128,0,0,0-3.711-.9,9.909,9.909,0,0,0-3,.489,18.077,18.077,0,0,0-2.857,1.171v3.76a9.862,9.862,0,0,1,2.222-.708,10.326,10.326,0,0,1,1.831-.22,4.409,4.409,0,0,1,2.588.66,4.474,4.474,0,0,1,1.465,1.831,8.326,8.326,0,0,1,.683,2.685q0.147,1.515.147,3.174v14.99h5.957V731.855q0-1.172-.049-2.393a17.318,17.318,0,0,0-.268-2.417,11.048,11.048,0,0,0-.684-2.295,6.028,6.028,0,0,0-1.294-1.928A15.778,15.778,0,0,0,275.819,720.405Zm21.338,3.393h4.394v-4h-4.394v-7.812h-5.909v7.812h-3.613v4h3.613v14.844q0,0.732.122,2.051a12.091,12.091,0,0,0,.586,2.71,8.057,8.057,0,0,0,1.392,2.539,4.106,4.106,0,0,0,2.588,1.44,11.614,11.614,0,0,0,1.294.147q0.756,0.048,1.489.048t1.489-.024q0.757-.026,1.294-0.073,0.635-.05,1.27-0.147V743.72a17.432,17.432,0,0,1-2.124-.122,4.49,4.49,0,0,1-1.807-.61,3.215,3.215,0,0,1-1.245-1.416,6.173,6.173,0,0,1-.439-2.588V723.8Z"/>
  <path id="Polygone_1-3" data-name="Polygone 1" class="cls-4" d="M302.934,448.314l-149.171,85.1L3.709,446.784,2.826,275.046,152,189.942l150.054,86.634Z"/>
</svg>
